<svg width="15" height="15" viewBox="0 0 15 15" fill="none" xmlns="http://www.w3.org/2000/svg">
<g clip-path="url(#clip0_203_9)">
<path d="M11.8575 0.536959L7.5 4.89469C6.04758 3.44274 4.59469 1.98938 3.14203 0.536959C1.46156 -1.14351 -1.14328 1.46227 0.535781 3.14321C1.98867 4.59469 3.44203 6.04829 4.89328 7.50071C3.44137 8.95379 1.98887 10.4063 0.535781 11.8582C-1.14328 13.5382 1.4618 16.1433 3.14203 14.4645C4.59445 13.0116 6.04734 11.5584 7.49977 10.1065L11.8573 14.4645C13.5377 16.1445 16.1433 13.5384 14.4635 11.8582C13.0106 10.4053 11.5582 8.9529 10.1048 7.50024C11.558 6.04735 13.0104 4.59446 14.4635 3.1418C16.1435 1.46227 13.538 -1.14351 11.8573 0.537897" fill="#EC1C24"/>
</g>
<defs>
<clipPath id="clip0_203_9">
<rect width="15" height="15" fill="white"/>
</clipPath>
</defs>
</svg>
